<svg width="24" height="24" viewBox="0 0 24 24" fill="none" xmlns="http://www.w3.org/2000/svg">
<path d="M5.64888 19.2361L5.64884 19.2361C5.3093 18.9894 5.01068 18.6908 4.76396 18.3511C4.43097 17.8929 4.22369 17.2917 4.11355 16.2751C4.09566 16.1099 4.08066 15.938 4.06805 15.7581L5.64888 19.2361ZM5.64888 19.2361C6.10717 19.5691 6.70835 19.7763 7.72495 19.8865L7.72502 19.8865M5.64888 19.2361L7.72502 19.8865M7.72502 19.8865C8.76041 19.9986 10.1031 20 12 20C13.8969 20 15.2396 19.9986 16.275 19.8865L16.2751 19.8865C17.2917 19.7763 17.8928 19.5691 18.3511 19.2361L18.3512 19.2361C18.6907 18.9894 18.9894 18.6908 19.2361 18.3511C19.5691 17.8928 19.7763 17.2917 19.8865 16.2751L19.8865 16.275C19.9044 16.11 19.9194 15.938 19.932 15.758C19.9427 15.6051 20.0647 15.5 20.1944 15.5C20.3413 15.5 20.4423 15.6192 20.434 15.7427L20.434 15.7427C20.3405 17.1395 20.1172 17.989 19.6406 18.645L19.6406 18.645C19.363 19.0271 19.0271 19.363 18.645 19.6406L18.645 19.6406C18.0873 20.0458 17.3881 20.2688 16.3289 20.3835C15.2603 20.4993 13.886 20.5 12 20.5C10.114 20.5 8.73966 20.4993 7.67112 20.3835C6.61194 20.2688 5.91269 20.0458 5.35497 19.6406C4.97295 19.363 4.63699 19.0271 4.35943 18.645L4.35941 18.645C3.88276 17.989 3.65953 17.1395 3.56596 15.7427L3.06708 15.7761M7.72502 19.8865L3.06708 15.7761M3.06708 15.7761L3.56596 15.7427C3.55768 15.6192 3.6587 15.5 3.80561 15.5C3.93531 15.5 4.05731 15.6051 4.06805 15.7581L3.06708 15.7761ZM4.76394 5.64886L4.76394 5.64886C5.01066 5.30928 5.30929 5.01065 5.64886 4.76393L5.64886 4.76393C6.10715 4.43096 6.70834 4.22369 7.72498 4.11355C8.7604 4.00137 10.1031 4 12 4C13.8969 4 15.2396 4.00137 16.2751 4.11355C17.2917 4.22369 17.8928 4.43097 18.3512 4.76391L18.3512 4.76395C18.6907 5.01066 18.9894 5.30928 19.2361 5.64884L19.2361 5.64887C19.5691 6.10717 19.7763 6.70835 19.8865 7.72494L19.8865 7.72502C19.9044 7.89006 19.9194 8.06205 19.932 8.24198C19.9427 8.39488 20.0647 8.5 20.1944 8.5C20.3413 8.5 20.4423 8.38084 20.434 8.25736L20.434 8.2573C20.3405 6.86052 20.1172 6.01106 19.6406 5.35496C19.363 4.97295 19.0271 4.63699 18.645 4.35943L18.645 4.35942C18.0873 3.95421 17.388 3.73121 16.3289 3.61645C15.2603 3.50069 13.886 3.5 12 3.5C10.114 3.5 8.73966 3.50069 7.67112 3.61645C6.61194 3.73121 5.91269 3.95421 5.35497 4.35942M4.76394 5.64886L5.35497 4.35942M4.76394 5.64886C4.43097 6.10715 4.22369 6.70833 4.11356 7.72496C4.09566 7.89009 4.08066 8.06209 4.06805 8.24189C4.05732 8.39494 3.93531 8.5 3.80561 8.5C3.65869 8.5 3.55768 8.38081 3.56596 8.25733L3.06728 8.22392M4.76394 5.64886L3.06728 8.22392M5.35497 4.35942C4.97295 4.63698 4.63698 4.97294 4.35942 5.35497M5.35497 4.35942L4.35942 5.35497M4.35942 5.35497C3.88275 6.01105 3.65953 6.86049 3.56596 8.25733L3.06728 8.22392M4.35942 5.35497L3.06728 8.22392" fill="#1B1B1B" stroke="#FF720D"/>
<path d="M2.75 12.25H21.25" stroke="#FF720D" stroke-width="1.5" stroke-linecap="round"/>
</svg>
